HIERARCHY
ROOT joint_Root
{
	OFFSET 0.0 0.0 0.0
	CHANNELS 6 Xposition Yposition Zposition Zrotation Xrotation Yrotation 
	JOINT Hips
	{
		OFFSET -17.1583 93.1646 452.98
		CHANNELS 6 Xposition Yposition Zposition Zrotation Xrotation Yrotation 
		JOINT Spine
		{
			OFFSET 15.7357 0.0 0.0
			CHANNELS 6 Xposition Yposition Zposition Zrotation Xrotation Yrotation 
			JOINT Chest
			{
				OFFSET 8.98455 -0.406207 0.0
				CHANNELS 6 Xposition Yposition Zposition Zrotation Xrotation Yrotation 
				JOINT Neck
				{
					OFFSET 16.3773 0.0 0.0
					CHANNELS 6 Xposition Yposition Zposition Zrotation Xrotation Yrotation 
					JOINT Head
					{
						OFFSET 6.45672 0.0 0.0
						CHANNELS 6 Xposition Yposition Zposition Zrotation Xrotation Yrotation 
						End Site
						{
							OFFSET 0.0 0.0 0.0
						}
					}
				}
				JOINT Shoulder_L
				{
					OFFSET 12.9942 -0.242716 4.98039
					CHANNELS 6 Xposition Yposition Zposition Zrotation Xrotation Yrotation 
					JOINT UpperArm_L
					{
						OFFSET 5.34809 0.0 0.0
						CHANNELS 6 Xposition Yposition Zposition Zrotation Xrotation Yrotation 
						JOINT LowerArm_L
						{
							OFFSET 24.3286 1.87007e-05 0.0
							CHANNELS 6 Xposition Yposition Zposition Zrotation Xrotation Yrotation 
							JOINT Hand_L
							{
								OFFSET 22.2916 0.0 0.0
								CHANNELS 6 Xposition Yposition Zposition Zrotation Xrotation Yrotation 
								End Site
								{
									OFFSET 0.0 0.0 0.0
								}
							}
						}
					}
				}
				JOINT Shoulder_R
				{
					OFFSET 12.9945 -0.242716 -4.98039
					CHANNELS 6 Xposition Yposition Zposition Zrotation Xrotation Yrotation 
					JOINT UpperArm_R
					{
						OFFSET -5.34813 0.0 0.0
						CHANNELS 6 Xposition Yposition Zposition Zrotation Xrotation Yrotation 
						JOINT LowerArm_R
						{
							OFFSET -24.3289 0.000322201 0.0
							CHANNELS 6 Xposition Yposition Zposition Zrotation Xrotation Yrotation 
							JOINT Hand_R
							{
								OFFSET -22.2915 -0.000108084 0.0
								CHANNELS 6 Xposition Yposition Zposition Zrotation Xrotation Yrotation 
								End Site
								{
									OFFSET 0.0 0.0 0.0
								}
							}
						}
					}
				}
			}
		}
		JOINT UpperLeg_L
		{
			OFFSET -2.19248 -6.46944 0.0
			CHANNELS 6 Xposition Yposition Zposition Zrotation Xrotation Yrotation 
			JOINT LowerLeg_L
			{
				OFFSET 39.0811 0.0 -1.23785e-05
				CHANNELS 6 Xposition Yposition Zposition Zrotation Xrotation Yrotation 
				JOINT Foot_L
				{
					OFFSET 40.9854 0.0 -1.26872e-05
					CHANNELS 6 Xposition Yposition Zposition Zrotation Xrotation Yrotation 
					JOINT Toes_L
					{
						OFFSET 11.7543 0.0 0.0
						CHANNELS 6 Xposition Yposition Zposition Zrotation Xrotation Yrotation 
						End Site
						{
							OFFSET 0.0 0.0 0.0
						}
					}
				}
			}
		}
		JOINT UpperLeg_R
		{
			OFFSET -2.19251 6.46944 0.0
			CHANNELS 6 Xposition Yposition Zposition Zrotation Xrotation Yrotation 
			JOINT LowerLeg_R
			{
				OFFSET -39.0811 -0.00228153 -0.0401928
				CHANNELS 6 Xposition Yposition Zposition Zrotation Xrotation Yrotation 
				JOINT Foot_R
				{
					OFFSET -40.9854 0.0 0.0
					CHANNELS 6 Xposition Yposition Zposition Zrotation Xrotation Yrotation 
					JOINT Toes_R
					{
						OFFSET -11.7543 0.0 0.0
						CHANNELS 6 Xposition Yposition Zposition Zrotation Xrotation Yrotation 
						End Site
						{
							OFFSET 0.0 0.0 0.0
						}
					}
				}
			}
		}
	}
}
MOTION
Frames:	5
Frame Time:	0.0333333
0.000000 0.000000 0.000000 0.000000 0.000000 -0.000000 0.263036 92.971700 -1.138940 85.917600 -4.834760 0.319330 15.735700 0.000005 -0.000001 84.891700 87.068200 -82.479500 8.984550 -0.406207 -0.000000 -1.906000 -0.725423 4.811410 16.377300 -0.000001 -0.000001 3.171760 4.033400 0.361948 6.456720 -0.000001 -0.000000 1.795930 6.164690 -6.479250 12.994200 -0.242716 4.980390 -92.746300 8.449870 -71.921000 5.348090 -0.000007 -0.000001 -74.542800 18.994100 3.915390 24.328600 0.000019 0.000005 15.685200 25.826800 -32.804500 22.291600 -0.000001 0.000005 -3.212800 5.023060 6.825250 12.994500 -0.242716 -4.980390 88.738500 3.999590 -72.479000 -5.348130 -0.000001 -0.000004 -72.170800 21.591600 -1.911330 -24.328900 0.000322 -0.000009 2.142890 5.138880 -22.682600 -22.291500 -0.000108 -0.000004 2.813710 5.247410 1.501350 -2.192480 -6.469440 -0.000000 -176.187000 -3.201890 -3.648380 39.081100 -0.000007 -0.000012 0.221419 -0.592163 20.502000 40.985400 -0.000006 -0.000013 2.994280 7.373230 -71.698300 11.754300 -0.000000 0.000003 -0.000234 0.171477 -9.621570 -2.192510 6.469440 -0.000001 -175.261000 6.020130 -179.001000 -39.081100 -0.002282 -0.040193 0.016055 -0.059576 12.052100 -40.985400 0.000008 0.000006 -1.980690 4.492000 -67.355100 -11.754300 -0.000006 -0.000006 -0.009921 0.270715 -5.575140
0.000000 0.000000 0.000000 0.000000 0.000000 -0.000000 0.203253 92.981000 -1.194960 85.863300 -4.720980 0.214088 15.735700 0.000005 -0.000001 84.741100 87.083000 -82.312200 8.984550 -0.406207 -0.000000 -1.936300 -0.740115 4.844540 16.377300 -0.000001 -0.000001 3.044450 3.962690 0.531535 6.456720 -0.000001 -0.000000 1.385670 6.134610 -6.232870 12.994200 -0.242716 4.980390 -92.778100 8.504680 -71.834800 5.348090 -0.000007 -0.000001 -74.056200 17.946300 3.887470 24.328600 0.000019 0.000005 16.604800 25.963000 -34.260900 22.291600 -0.000001 0.000005 -3.468520 5.023660 6.812180 12.994500 -0.242716 -4.980390 88.746800 3.962090 -72.432300 -5.348130 -0.000001 -0.000004 -71.946900 19.941800 -1.524370 -24.328900 0.000322 -0.000009 2.545300 5.613500 -24.448200 -22.291500 -0.000108 -0.000004 2.398620 5.238790 1.727360 -2.192480 -6.469440 -0.000000 -176.082000 -3.057580 -3.817500 39.081100 -0.000007 -0.000012 0.219870 -0.587034 20.533600 40.985400 -0.000006 -0.000013 2.941210 7.402970 -71.660700 11.754300 -0.000000 0.000003 0.000002 0.167595 -9.779270 -2.192510 6.469440 -0.000001 -175.116000 5.856900 -179.092000 -39.081100 -0.002282 -0.040193 0.015087 -0.055592 11.935600 -40.985400 0.000008 0.000006 -2.073810 4.189540 -67.272800 -11.754300 -0.000006 -0.000006 -0.009827 0.270011 -5.603900
0.000000 0.000000 0.000000 0.000000 0.000000 -0.000000 0.133276 92.970100 -1.234500 85.854700 -4.593350 0.273238 15.735700 0.000005 -0.000001 84.590700 87.053700 -82.158100 8.984550 -0.406207 -0.000000 -1.878900 -0.759981 4.851850 16.377300 -0.000001 -0.000001 2.959330 3.898610 0.701073 6.456720 -0.000001 -0.000000 0.979634 6.124910 -5.887670 12.994200 -0.242716 4.980390 -92.811100 8.560630 -71.744300 5.348090 -0.000007 -0.000001 -73.477500 16.576600 4.027100 24.328600 0.000019 0.000005 17.823300 25.733500 -36.519700 22.291600 -0.000001 0.000005 -3.803310 5.017850 6.937630 12.994500 -0.242716 -4.980390 88.748900 3.943990 -72.384300 -5.348130 -0.000001 -0.000004 -71.697100 17.493000 -0.902491 -24.328900 0.000322 -0.000009 2.969850 5.862760 -26.934200 -22.291500 -0.000108 -0.000004 1.998600 5.224580 2.095240 -2.192480 -6.469440 -0.000000 -176.029000 -2.931130 -3.864470 39.081100 -0.000007 -0.000012 0.223978 -0.593365 20.680500 40.985400 -0.000006 -0.000013 2.894040 7.385620 -71.759200 11.754300 -0.000000 0.000003 -0.000156 0.170216 -9.672820 -2.192510 6.469440 -0.000001 -175.016000 5.785990 -179.080000 -39.081100 -0.002282 -0.040193 0.016554 -0.062180 12.001400 -40.985400 0.000008 0.000006 -1.901270 3.948110 -67.348500 -11.754300 -0.000006 -0.000006 -0.009714 0.269156 -5.638870
0.000000 0.000000 0.000000 0.000000 0.000000 -0.000000 0.054534 92.954700 -1.278910 85.807200 -4.482190 0.303911 15.735700 0.000005 -0.000001 84.692200 87.018000 -82.234000 8.984550 -0.406207 -0.000000 -1.806760 -0.756787 4.903510 16.377300 -0.000001 -0.000001 2.843820 3.797270 0.988912 6.456720 -0.000001 -0.000000 0.533599 6.152310 -5.628550 12.994200 -0.242716 4.980390 -92.852500 8.616110 -71.603500 5.348090 -0.000007 -0.000001 -72.870600 14.827300 4.274380 24.328600 0.000019 0.000005 19.884100 25.698200 -39.830500 22.291600 -0.000001 0.000005 -4.005550 5.015200 6.994500 12.994500 -0.242716 -4.980390 88.756300 3.888880 -72.250300 -5.348130 -0.000001 -0.000004 -71.429100 14.461300 -0.119224 -24.328900 0.000322 -0.000009 3.571730 6.116960 -30.368500 -22.291500 -0.000108 -0.000004 1.824380 5.202640 2.653120 -2.192480 -6.469440 -0.000000 -175.923000 -2.750510 -3.984100 39.081100 -0.000007 -0.000012 0.229788 -0.601950 20.894300 40.985400 -0.000006 -0.000013 2.833290 7.365910 -71.824900 11.754300 -0.000000 0.000003 -0.000151 0.170125 -9.676490 -2.192510 6.469440 -0.000001 -174.857000 5.691520 -179.105000 -39.081100 -0.002282 -0.040193 0.018287 -0.069953 12.064700 -40.985400 0.000008 0.000006 -1.634950 3.716540 -67.432300 -11.754300 -0.000006 -0.000006 -0.009758 0.269488 -5.625280
0.000000 0.000000 0.000000 0.000000 0.000000 -0.000000 -0.049005 92.935900 -1.328200 85.757100 -4.302330 0.366660 15.735700 0.000005 -0.000001 84.546300 86.979100 -82.070000 8.984550 -0.406207 -0.000000 -1.729960 -0.779163 4.939700 16.377300 -0.000001 -0.000001 2.841580 3.735090 1.296100 6.456720 -0.000001 -0.000000 0.008566 6.228410 -5.149710 12.994200 -0.242716 4.980390 -92.864600 8.573780 -71.445900 5.348090 -0.000007 -0.000001 -72.382700 12.464700 4.755600 24.328600 0.000019 0.000005 22.556100 25.164100 -44.328200 22.291600 -0.000001 0.000005 -4.244560 5.007410 7.161560 12.994500 -0.242716 -4.980390 88.743300 3.887470 -72.070100 -5.348130 -0.000001 -0.000004 -70.993500 11.251200 0.810991 -24.328900 0.000322 -0.000009 4.315560 6.240830 -34.774400 -22.291500 -0.000108 -0.000004 1.590570 5.173980 3.363330 -2.192480 -6.469440 -0.000000 -175.806000 -2.545950 -4.098050 39.081100 -0.000007 -0.000012 0.233494 -0.603918 21.138600 40.985400 -0.000006 -0.000013 2.767110 7.344040 -71.893000 11.754300 -0.000000 0.000003 -0.000062 0.168660 -9.736020 -2.192510 6.469440 -0.000001 -174.699000 5.673720 -179.125000 -39.081100 -0.002282 -0.040193 0.020072 -0.077503 12.185800 -40.985400 0.000008 0.000006 -1.495560 3.507860 -67.519000 -11.754300 -0.000006 -0.000006 -0.009932 0.270799 -5.571660
